<svg height="629.58679" width="500" xmlns="http://www.w3.org/2000/svg"><g transform="translate(6 -139.41322)"><path d="m1.0247934 146.438v371.64509c0 134.69784 108.7836966 243.89212 242.9751966 243.89212 134.19152 0 242.97522-109.19428 242.97522-243.89212v-371.64509z" fill="#fff"/><path d="m1.0247934 360.07901v158.00982c0 4.04796.084179 8.0732.2784091 12.07283h485.3935975c.19422-3.99963.27841-8.02487.27841-12.07283v-158.00982z" fill="#da121a" stroke="#000" stroke-linecap="round" stroke-width="2.429752"/><path d="m-1 144.41322v2.0248 371.65082c0 135.78802 109.71008 245.91116 245 245.91116s245-110.12315 245-245.91116v-371.65082-2.0248h-2.02479-485.9504166zm4.0495868 4.04959h481.9008232v369.62603c0 133.60768-107.85731 241.86157-240.95041 241.86157s-240.9504132-108.25388-240.9504132-241.86157z"/><path d="m309.47725 484.31829c-1.68787 2.92347-44.78623-8.71686-47.7097-7.029-2.92346 1.68787-14.39182 44.83231-17.76755 44.83231s-14.84409-43.14444-17.76756-44.83231c-2.92346-1.68786-46.02182 9.95247-47.70969 7.029-1.68786-2.92347 29.94214-34.42758 29.94214-37.80331s-31.63-34.87984-29.94214-37.8033c1.68787-2.92347 44.78623 8.71686 47.7097 7.02899 2.92346-1.68786 14.39182-44.8323 17.76755-44.8323s14.84409 43.14444 17.76756 44.83231c2.92346 1.68786 46.02182-9.95247 47.70969-7.029 1.68786 2.92346-29.94214 34.42758-29.94214 37.80331 0 3.37572 31.63 34.87983 29.94214 37.8033z" fill="#fcdd09" stroke="#000" stroke-linecap="round" stroke-width="2.429752"/></g></svg>