<?xml version="1.0" encoding="UTF-8" standalone="no"?>
<!-- Created with Inkscape (http://www.inkscape.org/) -->
<svg
   xmlns:dc="http://purl.org/dc/elements/1.1/"
   xmlns:cc="http://web.resource.org/cc/"
   xmlns:rdf="http://www.w3.org/1999/02/22-rdf-syntax-ns#"
   xmlns:svg="http://www.w3.org/2000/svg"
   xmlns="http://www.w3.org/2000/svg"
   xmlns:sodipodi="http://sodipodi.sourceforge.net/DTD/sodipodi-0.dtd"
   xmlns:inkscape="http://www.inkscape.org/namespaces/inkscape"
   id="svg2"
   sodipodi:version="0.32"
   inkscape:version="0.45pre1"
   width="198"
   height="302"
   version="1.0"
   sodipodi:docbase="C:\Documents and Settings\Flanker\Desktop"
   sodipodi:docname="Umbria-Bandiera.png.svg"
   inkscape:output_extension="org.inkscape.output.svg.inkscape"
   sodipodi:modified="true">
  <metadata
     id="metadata7">
    <rdf:RDF>
      <cc:Work
         rdf:about="">
        <dc:format>image/svg+xml</dc:format>
        <dc:type
           rdf:resource="http://purl.org/dc/dcmitype/StillImage" />
      </cc:Work>
    </rdf:RDF>
  </metadata>
  <defs
     id="defs5" />
  <sodipodi:namedview
     inkscape:window-height="871"
     inkscape:window-width="924"
     inkscape:pageshadow="2"
     inkscape:pageopacity="0.0"
     guidetolerance="10.0"
     gridtolerance="10.0"
     objecttolerance="10.0"
     borderopacity="1.0"
     bordercolor="#666666"
     pagecolor="#ffffff"
     id="base"
     inkscape:showpageshadow="false"
     inkscape:zoom="1.7806875"
     inkscape:cx="34.387084"
     inkscape:cy="173.10621"
     inkscape:window-x="72"
     inkscape:window-y="60"
     inkscape:current-layer="svg2" />
  <rect
     style="fill:#000000;fill-opacity:1;fill-rule:nonzero;stroke:none;stroke-width:3.5999999;stroke-linecap:round;stroke-linejoin:miter;stroke-miterlimit:4;stroke-dasharray:none;stroke-dashoffset:0;stroke-opacity:1"
     id="rect5131"
     width="198"
     height="302"
     x="2.0878602e-008"
     y="-4.0395356e-008" />
  <rect
     style="fill:#b2b2b2;fill-opacity:1;fill-rule:nonzero;stroke:#ffffff;stroke-width:3.50000024;stroke-linecap:round;stroke-linejoin:miter;stroke-miterlimit:4;stroke-dasharray:none;stroke-dashoffset:0;stroke-opacity:1"
     id="rect2179"
     width="192.50003"
     height="296.5"
     x="2.7499816"
     y="2.75" />
  <path
     style="fill:#ff0000;fill-opacity:1;fill-rule:evenodd;stroke:#ffffff;stroke-width:3.60000014;stroke-linecap:butt;stroke-linejoin:miter;stroke-miterlimit:4;stroke-dasharray:none;stroke-opacity:1"
     d="M 40.734379,2.8000049 C 38.551821,3.8806363 36.392711,6.9693431 36.392711,9.1819734 C 36.392711,11.394604 38.551821,14.483311 40.734379,15.563942 L 33.206739,44.329958 L 33.206739,46.342008 L 33.206739,48.731316 L 33.206739,112.64532 L 33.206739,114.65737 L 33.206739,117.04667 L 40.734379,145.81269 C 38.551821,146.89332 36.392711,149.98203 36.392711,152.19466 C 36.392711,154.40729 38.551821,157.496 40.734379,158.57663 L 33.206739,187.34264 L 33.206739,189.35469 L 33.206739,255.658 L 33.206739,257.67005 L 40.734379,286.43607 C 40.734379,286.43608 40.734379,299.2 40.734379,299.2 L 57.007826,299.2 C 57.007826,299.20001 57.007826,286.43607 57.007826,286.43607 L 64.566701,257.67005 L 64.566701,255.658 L 64.566701,189.35469 L 64.566701,187.34264 L 57.007826,158.57663 C 59.190386,157.496 61.380729,154.40729 61.380729,152.19466 C 61.380729,149.98203 59.190386,146.89332 57.007826,145.81269 L 64.566701,117.04667 L 64.566701,114.65737 L 64.566701,48.731316 L 64.566701,46.342008 L 64.566701,44.329958 L 57.007826,15.563942 C 59.190386,14.483311 61.380729,11.394604 61.380729,9.1819734 C 61.380729,6.9693429 59.190386,3.8806363 57.007826,2.8000049 L 40.734379,2.8000049 z "
     id="path4129"
     sodipodi:nodetypes="csccccccccsccccccccccccccscccccccscc" />
  <path
     sodipodi:nodetypes="csccccccccsccccccccccccccscccccccscc"
     id="path5117"
     d="M 89.568496,2.8000049 C 87.385937,3.8806363 85.226828,6.9693431 85.226828,9.1819734 C 85.226828,11.394604 87.385937,14.483311 89.568496,15.563942 L 82.040856,44.329958 L 82.040856,46.342008 L 82.040856,48.731316 L 82.040856,112.64532 L 82.040856,114.65737 L 82.040856,117.04667 L 89.568496,145.81269 C 87.385937,146.89332 85.226828,149.98203 85.226828,152.19466 C 85.226828,154.40729 87.385937,157.496 89.568496,158.57663 L 82.040856,187.34264 L 82.040856,189.35469 L 82.040856,255.658 L 82.040856,257.67005 L 89.568496,286.43607 C 89.568496,286.43608 89.568496,299.2 89.568496,299.2 L 105.84194,299.2 C 105.84194,299.20001 105.84194,286.43607 105.84194,286.43607 L 113.40081,257.67005 L 113.40081,255.658 L 113.40081,189.35469 L 113.40081,187.34264 L 105.84194,158.57663 C 108.0245,157.496 110.21484,154.40729 110.21484,152.19466 C 110.21484,149.98203 108.0245,146.89332 105.84194,145.81269 L 113.40081,117.04667 L 113.40081,114.65737 L 113.40081,48.731316 L 113.40081,46.342008 L 113.40081,44.329958 L 105.84194,15.563942 C 108.0245,14.483311 110.21484,11.394604 110.21484,9.1819734 C 110.21484,6.9693429 108.0245,3.8806363 105.84194,2.8000049 L 89.568496,2.8000049 z "
     style="fill:#ff0000;fill-opacity:1;fill-rule:evenodd;stroke:#ffffff;stroke-width:3.60000014;stroke-linecap:butt;stroke-linejoin:miter;stroke-miterlimit:4;stroke-dasharray:none;stroke-opacity:1" />
  <path
     style="fill:#ff0000;fill-opacity:1;fill-rule:evenodd;stroke:#ffffff;stroke-width:3.60000014;stroke-linecap:butt;stroke-linejoin:miter;stroke-miterlimit:4;stroke-dasharray:none;stroke-opacity:1"
     d="M 138.40261,2.8000049 C 136.22005,3.8806363 134.06095,6.9693431 134.06095,9.1819734 C 134.06095,11.394604 136.22005,14.483311 138.40261,15.563942 L 130.87497,44.329958 L 130.87497,46.342008 L 130.87497,48.731316 L 130.87497,112.64532 L 130.87497,114.65737 L 130.87497,117.04667 L 138.40261,145.81269 C 136.22005,146.89332 134.06095,149.98203 134.06095,152.19466 C 134.06095,154.40729 136.22005,157.496 138.40261,158.57663 L 130.87497,187.34264 L 130.87497,189.35469 L 130.87497,255.658 L 130.87497,257.67005 L 138.40261,286.43607 C 138.40261,286.43608 138.40261,299.2 138.40261,299.2 L 154.67605,299.2 C 154.67605,299.20001 154.67605,286.43607 154.67605,286.43607 L 162.23493,257.67005 L 162.23493,255.658 L 162.23493,189.35469 L 162.23493,187.34264 L 154.67605,158.57663 C 156.85861,157.496 159.04895,154.40729 159.04895,152.19466 C 159.04895,149.98203 156.85861,146.89332 154.67605,145.81269 L 162.23493,117.04667 L 162.23493,114.65737 L 162.23493,48.731316 L 162.23493,46.342008 L 162.23493,44.329958 L 154.67605,15.563942 C 156.85861,14.483311 159.04895,11.394604 159.04895,9.1819734 C 159.04895,6.9693429 156.85861,3.8806363 154.67605,2.8000049 L 138.40261,2.8000049 z "
     id="path5119"
     sodipodi:nodetypes="csccccccccsccccccccccccccscccccccscc" />
  <path
     style="fill:none;fill-rule:evenodd;stroke:#ffffff;stroke-width:3.60000014;stroke-linecap:butt;stroke-linejoin:miter;stroke-miterlimit:4;stroke-dasharray:none;stroke-opacity:1"
     d="M 2.9484328,44.450876 L 195.05157,44.450876"
     id="path3152" />
  <path
     style="fill:none;fill-rule:evenodd;stroke:#ffffff;stroke-width:3.60000014;stroke-linecap:butt;stroke-linejoin:miter;stroke-miterlimit:4;stroke-dasharray:none;stroke-opacity:1"
     d="M 194.85311,117.11975 L 3.1468876,117.11975"
     id="path3154" />
  <path
     id="path4125"
     d="M 194.85311,187.80313 L 3.1468876,187.80313"
     style="fill:none;fill-rule:evenodd;stroke:#ffffff;stroke-width:3.60000014;stroke-linecap:butt;stroke-linejoin:miter;stroke-miterlimit:4;stroke-dasharray:none;stroke-opacity:1" />
  <path
     style="fill:none;fill-rule:evenodd;stroke:#ffffff;stroke-width:3.60000014;stroke-linecap:butt;stroke-linejoin:miter;stroke-miterlimit:4;stroke-dasharray:none;stroke-opacity:1"
     d="M 194.85311,257.29521 L 3.1468876,257.29521"
     id="path4127" />
</svg>
