<?xml version="1.0" encoding="UTF-8" standalone="no"?>
<!-- Created with Inkscape (http://www.inkscape.org/) -->

<svg
   xmlns:dc="http://purl.org/dc/elements/1.1/"
   xmlns:cc="http://creativecommons.org/ns#"
   xmlns:rdf="http://www.w3.org/1999/02/22-rdf-syntax-ns#"
   xmlns:svg="http://www.w3.org/2000/svg"
   xmlns="http://www.w3.org/2000/svg"
   xmlns:sodipodi="http://sodipodi.sourceforge.net/DTD/sodipodi-0.dtd"
   xmlns:inkscape="http://www.inkscape.org/namespaces/inkscape"
   id="svg2"
   sodipodi:version="0.32"
   inkscape:version="0.47 r22583"
   width="185"
   height="300"
   version="1.0"
   sodipodi:docname="Valle_d'Aosta-Stemma.svg"
   inkscape:output_extension="org.inkscape.output.svg.inkscape"
   sodipodi:modified="true">
  <metadata
     id="metadata7">
    <rdf:RDF>
      <cc:Work
         rdf:about="">
        <dc:format>image/svg+xml</dc:format>
        <dc:type
           rdf:resource="http://purl.org/dc/dcmitype/StillImage" />
      </cc:Work>
    </rdf:RDF>
  </metadata>
  <defs
     id="defs5">
    <inkscape:perspective
       sodipodi:type="inkscape:persp3d"
       inkscape:vp_x="0 : 150 : 1"
       inkscape:vp_y="0 : 1000 : 0"
       inkscape:vp_z="185 : 150 : 1"
       inkscape:persp3d-origin="92.5 : 100 : 1"
       id="perspective47" />
  </defs>
  <sodipodi:namedview
     inkscape:window-height="569"
     inkscape:window-width="1024"
     inkscape:pageshadow="2"
     inkscape:pageopacity="0.0"
     guidetolerance="10.0"
     gridtolerance="10.0"
     objecttolerance="10.0"
     borderopacity="1.0"
     bordercolor="#666666"
     pagecolor="#ffffff"
     id="base"
     inkscape:zoom="3.7853783"
     inkscape:cx="121.20445"
     inkscape:cy="216.882"
     inkscape:window-x="0"
     inkscape:window-y="1"
     inkscape:current-layer="g11722"
     width="185px"
     height="300px"
     showgrid="false"
     inkscape:window-maximized="1" />
  <g
     id="g11722"
     transform="translate(1.10938, 0.796875)">
    <path
       sodipodi:nodetypes="ccccccccscccccccc"
       id="path6348"
       d="M 91.78125,3.4375 C 86.904113,10.68231 82.32786,18.368769 78.5,27.1875 C 75.969567,21.766855 71.53987,18.185344 66.5,16.03125 C 60.809725,19.102101 56.929758,24.173896 54.84375,28.75 L 41.8125,18.34375 L 32.6875,31.53125 C 25.937948,24.238058 20.73084,18.248127 11.15625,12.65625 L 22.625,66.03125 C 45.244311,60.835925 65.93754,58.5 91.78125,58.5 C 117.62496,58.5 138.34945,60.835925 160.96875,66.03125 L 172.4375,12.65625 C 162.86291,18.248127 157.6558,24.238058 150.90625,31.53125 L 141.78125,18.34375 L 128.75,28.75 C 126.67072,23.567479 122.75645,18.983801 117.09375,16.03125 C 112.05388,18.185344 107.62418,21.766855 105.09375,27.1875 C 101.26589,18.368769 96.658391,10.68231 91.78125,3.4375 z "
       style="fill: yellow; fill-opacity: 1; fill-rule: evenodd; stroke: rgb(51, 51, 51); stroke-width: 3; stroke-linecap: butt; stroke-linejoin: miter; stroke-miterlimit: 2; stroke-dasharray: none; stroke-opacity: 1;" />
    <path
       sodipodi:nodetypes="cccccccccc"
       id="path3688"
       d="M 4.75,72.1875 L 4.75,264.75 C 4.7500002,277.04971 11.7334,284.59375 24.3125,284.59375 L 79.375,284.59375 C 86.641127,284.59375 91.375,292.96875 91.375,292.96875 C 91.375,292.96875 96.140117,284.59375 103.40625,284.59375 L 158.46875,284.59375 C 171.04785,284.59375 178.03125,277.04971 178.03125,264.75 L 178.03125,72.1875 L 4.75,72.1875 z "
       style="fill: black; fill-opacity: 1; fill-rule: evenodd; stroke: yellow; stroke-width: 7; stroke-linecap: butt; stroke-linejoin: miter; stroke-miterlimit: 4; stroke-dasharray: none; stroke-opacity: 1;" />
    <path
       sodipodi:nodetypes="cccccc"
       id="path1873"
       d="M 90.210212,100.97514 C 92.532162,100.97514 92.545822,104.23575 90.210212,104.23575 L 71.881631,104.23575 C 65.145207,104.23575 64.322944,94.355114 70.745358,92.873019 C 68.055228,94.812678 67.965113,100.97514 72.367187,100.97514 L 90.210212,100.97514 z "
       style="fill:#ff0000;fill-opacity:1;fill-rule:evenodd;stroke:none;stroke-width:1px;stroke-linecap:butt;stroke-linejoin:miter;stroke-opacity:1" />
    <path
       sodipodi:nodetypes="ccccccscccczzzcccc"
       id="path2778"
       d="M 93.569629,117.38196 L 112.14523,98.806366 L 112.14523,92.186339 C 109.85279,95.377613 106.35209,97.013105 103.74668,96.830238 C 106.0487,94.453836 108.42437,91.543567 107.69894,88.234085 L 99.300398,89.320955 C 99.300398,89.320955 98.757089,92.680371 95.940982,92.680371 C 92.630877,92.680371 89.617374,89.419761 89.617374,89.419761 L 81.218833,89.419761 L 81.218833,99.003978 L 85.171088,99.003978 C 85.171088,99.003978 86.181026,96.336207 89.666778,96.336207 C 93.201914,96.336207 95.051724,99.815739 95.051724,103.05504 C 95.051724,106.29133 92.334549,109.08223 89.123342,109.08223 C 85.911755,109.08223 82.404509,106.01923 82.404509,106.01923 L 80.131963,112.93568 L 89.123342,112.93568 L 93.569629,117.38196 z "
       style="fill: white; fill-opacity: 1; fill-rule: evenodd; stroke: none; stroke-width: 1px; stroke-linecap: butt; stroke-linejoin: miter; stroke-opacity: 1;" />
    <path
       sodipodi:nodetypes="cccsccccccccccccccccccccccccccccccccccsccccccssccsssczszcccccc"
       id="path3665"
       d="M 147.90245,98.748217 C 139.23819,98.748217 134.60457,105.95831 135.6875,112.28125 L 146.03125,178.53125 C 146.52031,181.81498 143.39599,188.4375 134.6875,188.4375 C 129.74175,188.43749 127.82557,187.6951 126.8125,186.4375 L 109.125,164.53125 L 124.0625,149.59375 C 126.63194,147.02431 124.18943,144.09183 122.0625,146.21875 L 107.25,161.03125 L 102.1875,161.03125 L 124.5,138.71875 C 127.06944,136.14931 124.65818,133.24807 122.53125,135.375 L 96.84375,161.03125 L 91.6875,161.03125 L 123.59375,129.09375 C 126.16319,126.52431 123.75193,123.59182 121.625,125.71875 L 92,155.375 L 86.6875,155.375 L 120.9375,121.125 C 123.50694,118.55556 121.09568,115.65432 118.96875,117.78125 L 81.34375,155.375 L 76.375,155.375 L 118.65625,113.09375 C 121.22569,110.52431 118.81443,107.59182 116.6875,109.71875 L 77,149.4375 L 71.84375,149.4375 L 115.6875,105.5625 C 118.25694,102.99306 115.84568,100.09182 113.71875,102.21875 L 66.5,149.4375 L 61.05569,149.4375 L 63.89944,146.59375 L 39.3125,146.59375 L 38.8125,146.59375 L 37.53125,146.9375 L 29.985652,152.8171 L 37.53125,161.9375 L 68.90625,161.9375 L 102.90625,193.40625 C 100.39105,194.59398 95.3125,200.05048 95.3125,209 C 95.312502,222.66214 104.86042,227.7721 113.59375,227.5625 L 97.53125,249.5 L 98.663658,256.07056 L 107.15534,261.67467 L 116.25,252.09375 L 141.75,218.0625 C 129.31372,220.50783 123.65625,213.65416 123.65625,207.03125 C 123.65625,202.57664 126.7066,197.02915 132.3163,197.02915 C 143.04174,197.02915 154.2374,189.36771 152.875,179.65625 L 142.10848,112.22433 C 141.40981,108.03233 144.60969,104.93013 147.55156,104.93013 C 151.14198,104.93013 153.3529,107.06744 153.3529,110.63973 C 153.35291,114.21202 148.96875,117.8635 148.96875,124.15625 C 148.96875,132.18276 157.1875,135.0625 157.1875,135.0625 C 157.1875,135.0625 156.133,131.90123 156.95556,126.55666 C 157.77811,121.2121 160.96875,119.21464 160.96875,112 C 160.96876,105.67668 156.49684,98.748217 147.90245,98.748217 z M 63.89944,146.59375 L 75.49319,135 L 52.75,109.96875 L 41.371981,108.52203 L 41,119.9375 L 63.89944,146.59375 z "
       style="fill: white; fill-opacity: 1; fill-rule: evenodd; stroke: none; stroke-width: 1px; stroke-linecap: butt; stroke-linejoin: miter; stroke-opacity: 1;" />
    <path
       transform="translate(-0.494032, -0.395225)"
       d="m 56.714853,107.79774 c 0,2.56475 -2.079145,4.6439 -4.6439,4.6439 -2.564754,0 -4.643899,-2.07915 -4.643899,-4.6439 0,-2.56476 2.079145,-4.6439 4.643899,-4.6439 2.564755,0 4.6439,2.07914 4.6439,4.6439 z"
       sodipodi:ry="4.6438994"
       sodipodi:rx="4.6438994"
       sodipodi:cy="107.79774"
       sodipodi:cx="52.070953"
       id="path5453"
       style="opacity: 1; fill: white; fill-opacity: 1; fill-rule: evenodd; stroke: none; stroke-width: 2; stroke-linecap: round; stroke-linejoin: miter; stroke-miterlimit: 2; stroke-dasharray: none; stroke-opacity: 1;"
       sodipodi:type="arc" />
    <path
       sodipodi:type="arc"
       style="opacity: 1; fill: white; fill-opacity: 1; fill-rule: evenodd; stroke: none; stroke-width: 2; stroke-linecap: round; stroke-linejoin: miter; stroke-miterlimit: 2; stroke-dasharray: none; stroke-opacity: 1;"
       id="path5455"
       sodipodi:cx="52.070953"
       sodipodi:cy="107.79774"
       sodipodi:rx="4.6438994"
       sodipodi:ry="4.6438994"
       d="m 56.714853,107.79774 c 0,2.56475 -2.079145,4.6439 -4.6439,4.6439 -2.564754,0 -4.643899,-2.07915 -4.643899,-4.6439 0,-2.56476 2.079145,-4.6439 4.643899,-4.6439 2.564755,0 4.6439,2.07914 4.6439,4.6439 z"
       transform="translate(-12.5484, 10.5723)" />
    <path
       transform="matrix(1.43617, 0, 0, 1.43617, -33.8275, -46.9688)"
       d="m 56.714853,107.79774 c 0,2.56475 -2.079145,4.6439 -4.6439,4.6439 -2.564754,0 -4.643899,-2.07915 -4.643899,-4.6439 0,-2.56476 2.079145,-4.6439 4.643899,-4.6439 2.564755,0 4.6439,2.07914 4.6439,4.6439 z"
       sodipodi:ry="4.6438994"
       sodipodi:rx="4.6438994"
       sodipodi:cy="107.79774"
       sodipodi:cx="52.070953"
       id="path5457"
       style="opacity: 1; fill: white; fill-opacity: 1; fill-rule: evenodd; stroke: none; stroke-width: 2; stroke-linecap: round; stroke-linejoin: miter; stroke-miterlimit: 2; stroke-dasharray: none; stroke-opacity: 1;"
       sodipodi:type="arc" />
    <path
       transform="matrix(0.765957, 0, 0, 0.765957, 6.06082, 42.718)"
       d="m 56.714853,107.79774 c 0,2.56475 -2.079145,4.6439 -4.6439,4.6439 -2.564754,0 -4.643899,-2.07915 -4.643899,-4.6439 0,-2.56476 2.079145,-4.6439 4.643899,-4.6439 2.564755,0 4.6439,2.07914 4.6439,4.6439 z"
       sodipodi:ry="4.6438994"
       sodipodi:rx="4.6438994"
       sodipodi:cy="107.79774"
       sodipodi:cx="52.070953"
       id="path5459"
       style="opacity: 1; fill: white; fill-opacity: 1; fill-rule: evenodd; stroke: none; stroke-width: 2; stroke-linecap: round; stroke-linejoin: miter; stroke-miterlimit: 2; stroke-dasharray: none; stroke-opacity: 1;"
       sodipodi:type="arc" />
    <path
       transform="translate(-16.2043, 54.6399)"
       d="m 56.714853,107.79774 c 0,2.56475 -2.079145,4.6439 -4.6439,4.6439 -2.564754,0 -4.643899,-2.07915 -4.643899,-4.6439 0,-2.56476 2.079145,-4.6439 4.643899,-4.6439 2.564755,0 4.6439,2.07914 4.6439,4.6439 z"
       sodipodi:ry="4.6438994"
       sodipodi:rx="4.6438994"
       sodipodi:cy="107.79774"
       sodipodi:cx="52.070953"
       id="path6351"
       style="opacity: 1; fill: white; fill-opacity: 1; fill-rule: evenodd; stroke: none; stroke-width: 2; stroke-linecap: round; stroke-linejoin: miter; stroke-miterlimit: 2; stroke-dasharray: none; stroke-opacity: 1;"
       sodipodi:type="arc" />
    <path
       sodipodi:type="arc"
       style="opacity: 1; fill: white; fill-opacity: 1; fill-rule: evenodd; stroke: none; stroke-width: 2; stroke-linecap: round; stroke-linejoin: miter; stroke-miterlimit: 2; stroke-dasharray: none; stroke-opacity: 1;"
       id="path6353"
       sodipodi:cx="52.070953"
       sodipodi:cy="107.79774"
       sodipodi:rx="4.6438994"
       sodipodi:ry="4.6438994"
       d="m 56.714853,107.79774 c 0,2.56475 -2.079145,4.6439 -4.6439,4.6439 -2.564754,0 -4.643899,-2.07915 -4.643899,-4.6439 0,-2.56476 2.079145,-4.6439 4.643899,-4.6439 2.564755,0 4.6439,2.07914 4.6439,4.6439 z"
       transform="translate(-15.809, 37.8428)" />
    <path
       sodipodi:type="arc"
       style="opacity: 1; fill: white; fill-opacity: 1; fill-rule: evenodd; stroke: none; stroke-width: 2; stroke-linecap: round; stroke-linejoin: miter; stroke-miterlimit: 2; stroke-dasharray: none; stroke-opacity: 1;"
       id="path6355"
       sodipodi:cx="52.070953"
       sodipodi:cy="107.79774"
       sodipodi:rx="4.6438994"
       sodipodi:ry="4.6438994"
       d="m 56.714853,107.79774 c 0,2.56475 -2.079145,4.6439 -4.6439,4.6439 -2.564754,0 -4.643899,-2.07915 -4.643899,-4.6439 0,-2.56476 2.079145,-4.6439 4.643899,-4.6439 2.564755,0 4.6439,2.07914 4.6439,4.6439 z"
       transform="matrix(1.43617, 0, 0, 1.43617, -45.3879, -0.826187)" />
    <path
       sodipodi:type="arc"
       style="opacity: 1; fill: white; fill-opacity: 1; fill-rule: evenodd; stroke: none; stroke-width: 2; stroke-linecap: round; stroke-linejoin: miter; stroke-miterlimit: 2; stroke-dasharray: none; stroke-opacity: 1;"
       id="path6357"
       sodipodi:cx="52.070953"
       sodipodi:cy="107.79774"
       sodipodi:rx="4.6438994"
       sodipodi:ry="4.6438994"
       d="m 56.714853,107.79774 c 0,2.56475 -2.079145,4.6439 -4.6439,4.6439 -2.564754,0 -4.643899,-2.07915 -4.643899,-4.6439 0,-2.56476 2.079145,-4.6439 4.643899,-4.6439 2.564755,0 4.6439,2.07914 4.6439,4.6439 z"
       transform="matrix(0.765957, 0, 0, 0.765957, 6.15963, 79.3752)" />
    <path
       sodipodi:nodetypes="ccccccccccc"
       id="path1880"
       d="M 80.626116,177.27043 L 97.673579,193.06029 C 87.304475,200.95611 85.890131,209.6739 88.171715,223.38242 L 47.090123,208.57069 L 45.413323,207.03362 L 41.221324,207.03362 L 34.393395,192.89237 L 46.391457,193.20002 C 54.758092,192.56354 59.283165,194.45761 63.124519,197.42696 L 67.491186,197.46189 C 66.736088,187.23485 70.81007,180.04664 80.626116,177.27043 z "
       style="fill: white; fill-opacity: 1; fill-rule: evenodd; stroke: none; stroke-width: 1px; stroke-linecap: butt; stroke-linejoin: miter; stroke-opacity: 1;" />
    <path
       transform="matrix(0.765957, 0, 0, 0.765957, 8.53509, 127.304)"
       d="m 56.714853,107.79774 c 0,2.56475 -2.079145,4.6439 -4.6439,4.6439 -2.564754,0 -4.643899,-2.07915 -4.643899,-4.6439 0,-2.56476 2.079145,-4.6439 4.643899,-4.6439 2.564755,0 4.6439,2.07914 4.6439,4.6439 z"
       sodipodi:ry="4.6438994"
       sodipodi:rx="4.6438994"
       sodipodi:cy="107.79774"
       sodipodi:cx="52.070953"
       id="path2768"
       style="opacity: 1; fill: white; fill-opacity: 1; fill-rule: evenodd; stroke: none; stroke-width: 2; stroke-linecap: round; stroke-linejoin: miter; stroke-miterlimit: 2; stroke-dasharray: none; stroke-opacity: 1;"
       sodipodi:type="arc" />
    <path
       sodipodi:type="arc"
       style="opacity: 1; fill: white; fill-opacity: 1; fill-rule: evenodd; stroke: none; stroke-width: 2; stroke-linecap: round; stroke-linejoin: miter; stroke-miterlimit: 2; stroke-dasharray: none; stroke-opacity: 1;"
       id="path2770"
       sodipodi:cx="52.070953"
       sodipodi:cy="107.79774"
       sodipodi:rx="4.6438994"
       sodipodi:ry="4.6438994"
       d="m 56.714853,107.79774 c 0,2.56475 -2.079145,4.6439 -4.6439,4.6439 -2.564754,0 -4.643899,-2.07915 -4.643899,-4.6439 0,-2.56476 2.079145,-4.6439 4.643899,-4.6439 2.564755,0 4.6439,2.07914 4.6439,4.6439 z"
       transform="matrix(0.765957, 0, 0, 0.765957, 75.4673, 170.481)" />
    <path
       sodipodi:type="arc"
       style="opacity: 1; fill: white; fill-opacity: 1; fill-rule: evenodd; stroke: none; stroke-width: 2; stroke-linecap: round; stroke-linejoin: miter; stroke-miterlimit: 2; stroke-dasharray: none; stroke-opacity: 1;"
       id="path2772"
       sodipodi:cx="52.070953"
       sodipodi:cy="107.79774"
       sodipodi:rx="4.6438994"
       sodipodi:ry="4.6438994"
       d="m 56.714853,107.79774 c 0,2.56475 -2.079145,4.6439 -4.6439,4.6439 -2.564754,0 -4.643899,-2.07915 -4.643899,-4.6439 0,-2.56476 2.079145,-4.6439 4.643899,-4.6439 2.564755,0 4.6439,2.07914 4.6439,4.6439 z"
       transform="translate(-13.4096, 97.9572)" />
    <path
       transform="translate(-6.70238, 82.1674)"
       d="m 56.714853,107.79774 c 0,2.56475 -2.079145,4.6439 -4.6439,4.6439 -2.564754,0 -4.643899,-2.07915 -4.643899,-4.6439 0,-2.56476 2.079145,-4.6439 4.643899,-4.6439 2.564755,0 4.6439,2.07914 4.6439,4.6439 z"
       sodipodi:ry="4.6438994"
       sodipodi:rx="4.6438994"
       sodipodi:cy="107.79774"
       sodipodi:cx="52.070953"
       id="path2774"
       style="opacity: 1; fill: white; fill-opacity: 1; fill-rule: evenodd; stroke: none; stroke-width: 2; stroke-linecap: round; stroke-linejoin: miter; stroke-miterlimit: 2; stroke-dasharray: none; stroke-opacity: 1;"
       sodipodi:type="arc" />
    <path
       sodipodi:type="arc"
       style="opacity: 1; fill: white; fill-opacity: 1; fill-rule: evenodd; stroke: none; stroke-width: 2; stroke-linecap: round; stroke-linejoin: miter; stroke-miterlimit: 2; stroke-dasharray: none; stroke-opacity: 1;"
       id="path2776"
       sodipodi:cx="52.070953"
       sodipodi:cy="107.79774"
       sodipodi:rx="4.6438994"
       sodipodi:ry="4.6438994"
       d="m 56.714853,107.79774 c 0,2.56475 -2.079145,4.6439 -4.6439,4.6439 -2.564754,0 -4.643899,-2.07915 -4.643899,-4.6439 0,-2.56476 2.079145,-4.6439 4.643899,-4.6439 2.564755,0 4.6439,2.07914 4.6439,4.6439 z"
       transform="translate(44.5797, 143.231)" />
    <path
       transform="translate(58.064, 153.431)"
       d="m 56.714853,107.79774 c 0,2.56475 -2.079145,4.6439 -4.6439,4.6439 -2.564754,0 -4.643899,-2.07915 -4.643899,-4.6439 0,-2.56476 2.079145,-4.6439 4.643899,-4.6439 2.564755,0 4.6439,2.07914 4.6439,4.6439 z"
       sodipodi:ry="4.6438994"
       sodipodi:rx="4.6438994"
       sodipodi:cy="107.79774"
       sodipodi:cx="52.070953"
       id="path2779"
       style="opacity: 1; fill: white; fill-opacity: 1; fill-rule: evenodd; stroke: none; stroke-width: 2; stroke-linecap: round; stroke-linejoin: miter; stroke-miterlimit: 2; stroke-dasharray: none; stroke-opacity: 1;"
       sodipodi:type="arc" />
    <path
       transform="matrix(1.43617, 0, 0, 1.43617, -38.9601, 40.5349)"
       d="m 56.714853,107.79774 c 0,2.56475 -2.079145,4.6439 -4.6439,4.6439 -2.564754,0 -4.643899,-2.07915 -4.643899,-4.6439 0,-2.56476 2.079145,-4.6439 4.643899,-4.6439 2.564755,0 4.6439,2.07914 4.6439,4.6439 z"
       sodipodi:ry="4.6438994"
       sodipodi:rx="4.6438994"
       sodipodi:cy="107.79774"
       sodipodi:cx="52.070953"
       id="path2783"
       style="opacity: 1; fill: white; fill-opacity: 1; fill-rule: evenodd; stroke: none; stroke-width: 2; stroke-linecap: round; stroke-linejoin: miter; stroke-miterlimit: 2; stroke-dasharray: none; stroke-opacity: 1;"
       sodipodi:type="arc" />
    <path
       sodipodi:type="arc"
       style="opacity: 1; fill: white; fill-opacity: 1; fill-rule: evenodd; stroke: none; stroke-width: 2; stroke-linecap: round; stroke-linejoin: miter; stroke-miterlimit: 2; stroke-dasharray: none; stroke-opacity: 1;"
       id="path2785"
       sodipodi:cx="52.070953"
       sodipodi:cy="107.79774"
       sodipodi:rx="4.6438994"
       sodipodi:ry="4.6438994"
       d="m 56.714853,107.79774 c 0,2.56475 -2.079145,4.6439 -4.6439,4.6439 -2.564754,0 -4.643899,-2.07915 -4.643899,-4.6439 0,-2.56476 2.079145,-4.6439 4.643899,-4.6439 2.564755,0 4.6439,2.07914 4.6439,4.6439 z"
       transform="matrix(1.43617, 0, 0, 1.43617, 24.3391, 106.489)" />
    <path
       sodipodi:nodetypes="ccc"
       id="path2787"
       d="M 34.933325,113.48217 C 32.198974,114.72121 28.888584,114.06663 26.758927,112.01497 C 29.411473,110.50388 33.494714,111.30124 34.933325,113.48217 z "
       style="fill: red; fill-opacity: 1; fill-rule: evenodd; stroke: none; stroke-width: 1px; stroke-linecap: butt; stroke-linejoin: miter; stroke-opacity: 1;" />
    <path
       style="fill: red; fill-opacity: 1; fill-rule: evenodd; stroke: none; stroke-width: 1px; stroke-linecap: butt; stroke-linejoin: miter; stroke-opacity: 1;"
       d="M 47.18116,103.20349 C 45.53089,100.6958 45.661247,97.323836 47.355716,94.900301 C 49.261952,97.284763 49.111076,101.44239 47.18116,103.20349 z "
       id="path3674"
       sodipodi:nodetypes="ccc" />
    <path
       style="fill: red; fill-opacity: 1; fill-rule: evenodd; stroke: none; stroke-width: 1px; stroke-linecap: butt; stroke-linejoin: miter; stroke-opacity: 1;"
       d="M 29.149812,146.3608 C 26.607587,144.76424 25.326661,141.64232 25.862406,138.7341 C 28.586364,140.11231 30.174711,143.95754 29.149812,146.3608 z "
       id="path3676"
       sodipodi:nodetypes="ccc" />
    <path
       sodipodi:nodetypes="ccc"
       id="path3678"
       d="M 23.695337,168.97131 C 23.987193,165.98355 26.207328,163.44226 29.048323,162.62158 C 29.033022,165.67431 26.303267,168.81391 23.695337,168.97131 z "
       style="fill: red; fill-opacity: 1; fill-rule: evenodd; stroke: none; stroke-width: 1px; stroke-linecap: butt; stroke-linejoin: miter; stroke-opacity: 1;" />
    <path
       style="fill: red; fill-opacity: 1; fill-rule: evenodd; stroke: none; stroke-width: 1px; stroke-linecap: butt; stroke-linejoin: miter; stroke-opacity: 1;"
       d="M 38.981404,187.98877 C 36.594637,186.16799 35.602447,182.94267 36.400024,180.0951 C 38.987599,181.71493 40.22027,185.68849 38.981404,187.98877 z "
       id="path3680"
       sodipodi:nodetypes="ccc" />
    <path
       sodipodi:nodetypes="ccc"
       id="path3682"
       d="M 23.991551,205.7392 C 25.828764,203.36506 29.060857,202.39516 31.902853,203.21238 C 30.265199,205.78871 26.283224,206.99392 23.991551,205.7392 z "
       style="fill: red; fill-opacity: 1; fill-rule: evenodd; stroke: none; stroke-width: 1px; stroke-linecap: butt; stroke-linejoin: miter; stroke-opacity: 1;" />
    <path
       style="fill: red; fill-opacity: 1; fill-rule: evenodd; stroke: none; stroke-width: 1px; stroke-linecap: butt; stroke-linejoin: miter; stroke-opacity: 1;"
       d="M 85.093296,257.63688 C 87.175353,255.47426 90.493058,254.85785 93.230594,255.97619 C 91.325176,258.3613 87.23662,259.13095 85.093296,257.63688 z "
       id="path3684"
       sodipodi:nodetypes="ccc" />
    <path
       sodipodi:nodetypes="ccc"
       id="path3686"
       d="M 105.9905,273.76239 C 104.27154,271.30129 104.30864,267.927 105.93547,265.45755 C 107.90689,267.7884 107.871,271.94862 105.9905,273.76239 z "
       style="fill: red; fill-opacity: 1; fill-rule: evenodd; stroke: none; stroke-width: 1px; stroke-linecap: butt; stroke-linejoin: miter; stroke-opacity: 1;" />
    <path
       sodipodi:nodetypes="ccc"
       d="M 20.15648,56.912467 C 41.5602,52.258515 64.9236,48.810345 91.6923,48.810345 C 118.461,48.810345 141.8244,52.258515 163.22812,56.912467"
       style="fill: none; fill-rule: evenodd; stroke: rgb(51, 51, 51); stroke-width: 3; stroke-linecap: butt; stroke-linejoin: miter; stroke-miterlimit: 4; stroke-opacity: 1;"
       id="path6350" />
    <path
       sodipodi:nodetypes="ccc"
       d="M 17.58751,42.387931 C 38.99123,37.733979 64.33185,34.384615 91.6923,34.384615 C 119.05275,34.384615 144.39337,37.733979 165.79709,42.387931"
       style="fill: none; fill-rule: evenodd; stroke: rgb(51, 51, 51); stroke-width: 3; stroke-linecap: butt; stroke-linejoin: miter; stroke-miterlimit: 4; stroke-opacity: 1;"
       id="path9011" />
    <path
       sodipodi:nodetypes="ccc"
       d="M 17.19228,35.570292 C 38.596,30.91634 63.93662,27.566976 91.6923,27.566976 C 119.44798,27.566976 144.7886,30.91634 166.19232,35.570292"
       style="fill: none; fill-rule: evenodd; stroke: rgb(51, 51, 51); stroke-width: 3; stroke-linecap: butt; stroke-linejoin: miter; stroke-miterlimit: 4; stroke-opacity: 1;"
       id="path9013" />
    <path
       sodipodi:nodetypes="ccccc"
       id="path10807"
       d="M 91.796875,35.37265 L 86.461334,41.20224 L 91.796875,47.03183 L 97.132416,41.20224 L 91.796875,35.37265 z "
       style="fill: red; fill-opacity: 1; fill-rule: evenodd; stroke: rgb(51, 51, 51); stroke-width: 3; stroke-linecap: butt; stroke-linejoin: miter; stroke-miterlimit: 4; stroke-dasharray: none; stroke-opacity: 1;" />
    <g
       transform="translate(0.697372)"
       id="g11702">
      <path
         sodipodi:type="arc"
         style="opacity: 1; fill: red; fill-opacity: 1; fill-rule: evenodd; stroke: rgb(51, 51, 51); stroke-width: 3; stroke-linecap: round; stroke-linejoin: miter; stroke-miterlimit: 4; stroke-dasharray: none; stroke-opacity: 1;"
         id="path11694"
         sodipodi:cx="67.484749"
         sodipodi:cy="43.573608"
         sodipodi:rx="4.4462867"
         sodipodi:ry="4.4462867"
         d="m 71.931036,43.573608 c 0,2.455617 -1.990671,4.446287 -4.446287,4.446287 -2.455616,0 -4.446287,-1.99067 -4.446287,-4.446287 0,-2.455616 1.990671,-4.446286 4.446287,-4.446286 2.455616,0 4.446287,1.99067 4.446287,4.446286 z"
         transform="matrix(1.08168, 0, 0, 1.0928, -5.11724, -5.17972)" />
      <path
         sodipodi:type="arc"
         style="opacity: 1; fill: red; fill-opacity: 1; fill-rule: evenodd; stroke: rgb(51, 51, 51); stroke-width: 3; stroke-linecap: round; stroke-linejoin: miter; stroke-miterlimit: 4; stroke-dasharray: none; stroke-opacity: 1;"
         id="path11698"
         sodipodi:cx="67.484749"
         sodipodi:cy="43.573608"
         sodipodi:rx="4.4462867"
         sodipodi:ry="4.4462867"
         d="m 71.931036,43.573608 c 0,2.455617 -1.990671,4.446287 -4.446287,4.446287 -2.455616,0 -4.446287,-1.99067 -4.446287,-4.446287 0,-2.455616 1.990671,-4.446286 4.446287,-4.446286 2.455616,0 4.446287,1.99067 4.446287,4.446286 z"
         transform="matrix(1.08168, 0, 0, 1.0928, 41.3218, -5.17972)" />
    </g>
    <g
       transform="translate(-0.241291)"
       id="g11706">
      <path
         transform="matrix(1.08168, 0, 0, 1.0928, -27.4475, -2.80836)"
         d="m 71.931036,43.573608 c 0,2.455617 -1.990671,4.446287 -4.446287,4.446287 -2.455616,0 -4.446287,-1.99067 -4.446287,-4.446287 0,-2.455616 1.990671,-4.446286 4.446287,-4.446286 2.455616,0 4.446287,1.99067 4.446287,4.446286 z"
         sodipodi:ry="4.4462867"
         sodipodi:rx="4.4462867"
         sodipodi:cy="43.573608"
         sodipodi:cx="67.484749"
         id="path11696"
         style="opacity: 1; fill: red; fill-opacity: 1; fill-rule: evenodd; stroke: rgb(51, 51, 51); stroke-width: 3; stroke-linecap: round; stroke-linejoin: miter; stroke-miterlimit: 4; stroke-dasharray: none; stroke-opacity: 1;"
         sodipodi:type="arc" />
      <path
         transform="matrix(1.08168, 0, 0, 1.0928, 65.5293, -2.41314)"
         d="m 71.931036,43.573608 c 0,2.455617 -1.990671,4.446287 -4.446287,4.446287 -2.455616,0 -4.446287,-1.99067 -4.446287,-4.446287 0,-2.455616 1.990671,-4.446286 4.446287,-4.446286 2.455616,0 4.446287,1.99067 4.446287,4.446286 z"
         sodipodi:ry="4.4462867"
         sodipodi:rx="4.4462867"
         sodipodi:cy="43.573608"
         sodipodi:cx="67.484749"
         id="path11700"
         style="opacity: 1; fill: red; fill-opacity: 1; fill-rule: evenodd; stroke: rgb(51, 51, 51); stroke-width: 3; stroke-linecap: round; stroke-linejoin: miter; stroke-miterlimit: 4; stroke-dasharray: none; stroke-opacity: 1;"
         sodipodi:type="arc" />
    </g>
  </g>
</svg>
